<?xml version="1.0" encoding="UTF-8"?>
<svg width="22px" height="16px" viewBox="0 0 22 16" version="1.1" xmlns="http://www.w3.org/2000/svg" xmlns:xlink="http://www.w3.org/1999/xlink">
    <title>menu</title>
    <g id="Symbols" stroke="none" stroke-width="1" fill="none" fill-rule="evenodd">
        <g id="Header-MB" transform="translate(-278.000000, -38.000000)" fill="#777777">
            <g id="menu" transform="translate(278.000000, 38.000000)">
                <path d="M1,1.875 L21,1.875 C21.4832,1.875 21.875,1.4832 21.875,1 C21.875,0.5168 21.4832,0.125 21,0.125 L1,0.125 C0.5168,0.125 0.125,0.5168 0.125,1 C0.125,1.4832 0.5168,1.875 1,1.875 Z M1,8.875 L21,8.875 C21.4832,8.875 21.875,8.4832 21.875,8 C21.875,7.5168 21.4832,7.125 21,7.125 L1,7.125 C0.5168,7.125 0.125,7.5168 0.125,8 C0.125,8.4832 0.5168,8.875 1,8.875 Z M21,15.875 L1,15.875 C0.5168,15.875 0.125,15.4832 0.125,15 C0.125,14.5168 0.5168,14.125 1,14.125 L21,14.125 C21.4832,14.125 21.875,14.5168 21.875,15 C21.875,15.4832 21.4832,15.875 21,15.875 Z" id="Shape"></path>
            </g>
        </g>
    </g>
</svg>