<?xml version="1.0" encoding="UTF-8" standalone="no"?>
<svg
   width="34px"
   height="527px"
   viewBox="0 0 34 527"
   version="1.1"
   id="svg49"
   sodipodi:docname="social_networks_v2.svg"
   inkscape:version="1.2.2 (732a01da63, 2022-12-09, custom)"
   inkscape:export-filename="../377005b5/social.png"
   inkscape:export-xdpi="96"
   inkscape:export-ydpi="96"
   xmlns:inkscape="http://www.inkscape.org/namespaces/inkscape"
   xmlns:sodipodi="http://sodipodi.sourceforge.net/DTD/sodipodi-0.dtd"
   xmlns="http://www.w3.org/2000/svg"
   xmlns:svg="http://www.w3.org/2000/svg">
  <defs
     id="defs53" />
  <sodipodi:namedview
     id="namedview51"
     pagecolor="#ffffff"
     bordercolor="#666666"
     borderopacity="1.0"
     inkscape:showpageshadow="2"
     inkscape:pageopacity="0.0"
     inkscape:pagecheckerboard="0"
     inkscape:deskcolor="#d1d1d1"
     showgrid="false"
     inkscape:zoom="11.302974"
     inkscape:cx="-88.737704"
     inkscape:cy="141.68837"
     inkscape:window-width="3378"
     inkscape:window-height="1376"
     inkscape:window-x="62"
     inkscape:window-y="27"
     inkscape:window-maximized="1"
     inkscape:current-layer="g487" />
  <title
     id="title18">social_networks_v2</title>
  <g
     id="g242">
    <g
       id="Instagram-icon"
       transform="translate(0,74)"
       style="fill:none;fill-rule:nonzero;stroke:none;stroke-width:1">
      <circle
         id="circle23"
         fill="#000000"
         cx="17"
         cy="17"
         r="17" />
      <path
         d="m 18.024086,7.0007798 c 1.349932,0.00245 1.901564,0.011183 2.478581,0.033045 l 0.194408,0.00778 c 0.131739,0.00553 0.269251,0.011737 0.421576,0.01871 1.063889,0.048413 1.790476,0.2174603 2.426984,0.4642857 0.65754,0.2555555 1.214682,0.5972222 1.770635,1.1531746 0.555952,0.5555555 0.897619,1.1130952 1.153174,1.7706349 0.247223,0.635714 0.41627,1.362698 0.464683,2.426587 0.04009,0.875865 0.05502,1.262004 0.05907,2.876827 l 8.19e-4,0.450259 c 2.43e-4,0.08007 2.43e-4,0.162736 2.43e-4,0.248153 v 1.093173 c 0,0.08542 0,0.168087 -2.43e-4,0.248152 l -8.19e-4,0.45026 c -0.003,1.193565 -0.01193,1.715883 -0.03258,2.260843 l -0.0078,0.194408 c -0.0055,0.131739 -0.01174,0.269251 -0.01871,0.421576 -0.04841,1.063889 -0.21746,1.790873 -0.464683,2.426587 -0.255555,0.65754 -0.597222,1.214683 -1.153174,1.770635 -0.555556,0.555952 -1.113095,0.897619 -1.770635,1.153175 -0.635714,0.247222 -1.362699,0.416269 -2.426587,0.464682 -0.228487,0.01046 -0.423646,0.01921 -0.615985,0.02649 l -0.192528,0.0068 c -0.516928,0.01692 -1.086112,0.02406 -2.286052,0.02623 h -2.054521 c -1.19994,-0.0022 -1.769124,-0.0093 -2.286052,-0.02623 l -0.192529,-0.0068 c -0.192339,-0.0073 -0.387498,-0.01603 -0.615984,-0.02649 -1.063889,-0.04841 -1.790873,-0.21746 -2.426588,-0.464682 C 9.7912698,26.213492 9.234127,25.871825 8.6781746,25.315873 8.1222222,24.760317 7.7805556,24.202778 7.525,23.545238 7.2777778,22.909127 7.1087302,22.18254 7.0603175,21.118651 c -0.00697,-0.152325 -0.013184,-0.289837 -0.01871,-0.421576 l -0.00778,-0.194408 C 7.0119626,19.92565 7.0032319,19.374018 7.0007798,18.024086 V 15.969565 C 7.0040492,14.169655 7.0184807,13.788946 7.0603175,12.875 7.1087302,11.811111 7.2777778,11.084524 7.525,10.448413 7.7801587,9.7912698 8.1222222,9.2337302 8.6777778,8.6781746 9.2333333,8.1222222 9.790873,7.7805556 10.448413,7.525 11.084524,7.2777778 11.811111,7.1087302 12.875,7.0603175 c 0.913946,-0.041837 1.294655,-0.056268 3.094565,-0.059538 z m 0.01424,1.8011791 h -2.083012 c -1.737738,0.00312 -2.100013,0.016662 -2.998176,0.057565 C 11.98254,8.9039683 11.453175,9.0666667 11.100794,9.2035714 10.634127,9.3845238 10.301191,9.6011905 9.9511905,9.9511905 9.6015873,10.301191 9.3849206,10.634127 9.2035714,11.100794 9.0666667,11.453175 8.9039683,11.98254 8.8595238,12.957143 c -0.040902,0.898163 -0.054449,1.260438 -0.057565,2.998176 v 2.083035 c 0.00312,1.737816 0.016662,2.100329 0.057565,2.998154 0.044445,0.974603 0.2071429,1.503968 0.3440476,1.856349 0.1809524,0.466667 0.3976191,0.799603 0.7476191,1.149603 0.3500005,0.349603 0.6829365,0.56627 1.1496035,0.747619 0.352381,0.136905 0.881746,0.299603 1.856349,0.344048 0.858789,0.03912 1.227803,0.05322 2.779125,0.0571 l 0.453657,8.16e-4 c 0.08091,2.38e-4 0.164585,2.38e-4 0.25117,2.38e-4 h 1.111461 c 0.08658,0 0.170256,0 0.251169,-2.38e-4 l 0.453658,-8.16e-4 c 1.05772,-0.0026 1.565812,-0.01004 2.054264,-0.02688 l 0.195589,-0.0072 c 0.164212,-0.0065 0.334093,-0.01408 0.529272,-0.02297 0.974603,-0.04444 1.503968,-0.207143 1.856349,-0.344048 0.466667,-0.180952 0.799603,-0.397619 1.149603,-0.747619 0.349603,-0.35 0.56627,-0.682936 0.747619,-1.149603 0.136905,-0.352381 0.299603,-0.881746 0.344048,-1.856349 0.03912,-0.859112 0.05322,-1.227923 0.0571,-2.779158 l 8.16e-4,-0.453638 c 2.38e-4,-0.08091 2.38e-4,-0.164579 2.38e-4,-0.251162 v -1.111455 c 0,-0.08658 0,-0.170256 -2.38e-4,-0.25117 l -8.16e-4,-0.453657 c -0.0039,-1.551322 -0.01797,-1.920336 -0.0571,-2.779125 C 25.089682,11.98254 24.926984,11.453175 24.790079,11.100794 24.609127,10.634127 24.39246,10.301191 24.04246,9.9511905 23.69246,9.6015873 23.359524,9.3849206 22.892857,9.2035714 22.540476,9.0666667 22.011111,8.9039683 21.036508,8.8595238 20.138345,8.8186214 19.77607,8.8050749 18.038331,8.8019589 Z M 16.99682,11.863492 c 2.835318,0 5.133334,2.298413 5.133334,5.133333 0,2.834921 -2.298413,5.133334 -5.133334,5.133334 -2.83492,0 -5.133333,-2.298413 -5.133333,-5.133334 0,-2.83492 2.298016,-5.133333 5.133333,-5.133333 z m 0,1.801191 c -1.840079,0 -3.332142,1.491666 -3.332142,3.332142 0,1.84008 1.491666,3.332143 3.332142,3.332143 1.840477,0 3.332143,-1.491666 3.332143,-3.332143 0,-1.840079 -1.492063,-3.332142 -3.332143,-3.332142 z m 5.336508,-3.203969 c 0.662523,0 1.199604,0.537081 1.199604,1.199604 0,0.662522 -0.537081,1.199603 -1.199604,1.199603 -0.662522,0 -1.199603,-0.537081 -1.199603,-1.199603 0,-0.662523 0.537081,-1.199604 1.199603,-1.199604 z"
         id="path25"
         fill="#ffffff" />
    </g>
    <g
       id="Facebook-icon"
       style="fill:none;fill-rule:nonzero;stroke:none;stroke-width:1">
      <circle
         id="circle28"
         fill="#000000"
         cx="17"
         cy="17"
         r="17" />
      <path
         d="m 18.739698,27 v -9.108408 h 3.072125 l 0.458038,-3.566151 h -3.530163 v -2.270559 c 0,-1.030585 0.28791,-1.734 1.763446,-1.734 h 1.871411 V 7.1407913 c -0.910681,-0.096396 -1.825918,-0.1433594 -2.741683,-0.1408912 -2.715509,0 -4.580377,1.6589592 -4.580377,4.7016389 v 2.617358 H 12 v 3.566151 h 3.059038 V 27 Z"
         id="path30"
         fill="#ffffff" />
    </g>
    <g
       id="g368"
       transform="translate(153.09494,-561.77532)">
      <g
         id="g487"
         transform="matrix(0.03139759,0,0,0.03139759,-153.07336,709.78222)">
        <path
           fill="#000000"
           opacity="1"
           stroke="none"
           d="m 1081,513 c 0,19.02087 0,38.04181 -0.3901,57.71075 -2.4237,19.17029 -3.8326,37.78675 -6.6082,56.19709 -8.4134,55.80682 -25.8046,108.83978 -51.5196,159.03521 -44.55345,86.9679 -107.89726,157.16578 -190.17265,209.88733 -79.45972,50.91742 -166.52161,78.92062 -260.81317,84.24942 -0.84668,0.048 -1.6648,0.6023 -2.49628,0.9202 -19.02087,0 -38.04181,0 -57.71695,-0.3918 -51.4285,-3.3085 -100.95456,-12.7879 -148.87851,-29.7978 C 258.55887,1013.9517 173.27019,951.49634 107.46874,863.09815 46.007397,780.5304 11.333314,687.61395 2.845101,584.97412 2.458323,580.29718 1.625224,575.65723 1.000002,571 1,551.31244 1,531.62488 1.379256,511.2727 3.630739,480.49439 7.376862,450.61459 14.282301,421.23569 43.9291,295.10471 109.93868,192.17564 212.12086,112.52909 259.8981,75.288834 312.91513,47.679764 370.26486,28.497332 415.11505,13.495763 461.23752,4.603737 508.51358,1.965171 509.3577,1.918058 510.17187,1.333686 511,1.000001 530.02087,1 549.04181,1 568.71997,1.393 625.6106,4.63762 680.08716,15.934509 732.68781,36.037308 831.14813,73.66671 912.02594,134.7825 974.83466,219.32492 c 61.48354,82.75876 96.05294,175.86978 104.40354,278.67615 0.4073,5.01425 1.1665,9.99994 1.7618,14.99893 M 267.12729,315.38412 c 21.06464,28.19581 42.12747,56.39292 63.19443,84.58701 15.60553,20.88504 31.2225,41.76163 46.82309,62.65036 14.31436,19.16647 28.59234,38.36023 42.92584,57.51242 13.72702,18.3418 27.50494,36.64563 41.37677,55.12097 -91.43247,98.75672 -182.64743,197.27857 -274.64104,296.64142 2.41054,0 3.66383,1.8e-4 4.91713,0 17.66426,-0.002 35.3304,0.11841 52.99057,-0.15112 2.42705,-0.037 5.45256,-1.41663 7.13438,-3.18762 11.44783,-12.05469 22.56402,-24.42341 33.87429,-36.60993 19.19086,-20.67743 38.49432,-41.25036 57.66263,-61.94861 28.32516,-30.586 56.57406,-61.24255 84.85421,-91.87018 15.77542,-17.08483 31.49396,-34.22283 47.35742,-51.22558 4.45499,-4.7749 9.33301,-9.15509 14.11292,-13.80982 7.11212,9.41675 14.26041,18.78748 21.3089,28.23261 17.27713,23.15198 34.45883,46.37524 51.77023,69.50153 22.37055,29.88476 44.87024,59.67279 67.23804,89.55957 17.11139,22.86352 34.05951,45.84942 51.25183,68.65161 1.14124,1.51355 3.73767,2.73437 5.65997,2.73822 67.65729,0.13568 135.31488,0.11102 202.97248,0.0878 1.03515,-3.7e-4 2.07025,-0.26368 3.63629,-0.47626 C 797.41071,742.85309 701.65558,614.82819 605.6919,486.52451 c 85.03564,-91.875 169.92846,-183.59574 255.70587,-276.2723 -21.03186,0 -40.49219,-0.0689 -59.94996,0.12519 -1.63299,0.0163 -3.56634,1.49807 -4.81756,2.81463 -5.71497,6.01322 -11.18799,12.25545 -16.83631,18.33325 -16.71465,17.98548 -33.52026,35.88655 -50.19958,53.90465 -25.48248,27.52799 -50.87671,55.13761 -76.3316,82.69107 -21.18848,22.9353 -42.38288,45.86536 -63.64319,68.73395 -3.80377,4.09155 -7.94141,7.87271 -12.02851,11.89923 -0.6698,-0.84915 -1.29553,-1.6058 -1.8822,-2.3916 -18.87054,-25.2731 -37.71643,-50.56458 -56.60956,-75.8208 -26.35885,-35.23648 -52.76364,-70.43863 -79.12671,-105.67197 -13.03066,-17.41504 -25.94598,-34.91734 -39.13494,-52.21127 -1.11179,-1.45781 -3.90714,-2.30004 -5.9224,-2.3037 -67.15744,-0.12167 -134.31509,-0.10774 -201.47275,-0.10022 -1.37815,1.7e-4 -2.75628,0.1595 -4.75276,0.28278 26.3129,35.15353 52.17494,69.70476 78.43755,104.84672 z"
           id="path328" />
        <path
           fill="#fdfdfd"
           opacity="1"
           stroke="none"
           d="m 266.927,315.08875 c -26.06232,-34.84659 -51.92436,-69.39782 -78.23726,-104.55135 1.99648,-0.12328 3.37461,-0.28261 4.75276,-0.28278 67.15766,-0.008 134.31531,-0.0214 201.47275,0.10022 2.01526,0.004 4.81061,0.84589 5.9224,2.3037 13.18896,17.29393 26.10428,34.79623 39.13494,52.21127 26.36307,35.23334 52.76786,70.43549 79.12671,105.67197 18.89313,25.25622 37.73902,50.5477 56.60956,75.8208 0.58667,0.7858 1.2124,1.54245 1.8822,2.3916 4.0871,-4.02652 8.22474,-7.80768 12.02851,-11.89923 21.26031,-22.86859 42.45471,-45.79865 63.64319,-68.73395 25.45489,-27.55346 50.84912,-55.16308 76.3316,-82.69107 16.67932,-18.0181 33.48493,-35.91917 50.19958,-53.90465 5.64832,-6.0778 11.12134,-12.32003 16.83631,-18.33325 1.25122,-1.31656 3.18457,-2.79834 4.81756,-2.81463 19.45777,-0.19411 38.9181,-0.12519 59.94996,-0.12519 -85.77741,92.67656 -170.67023,184.3973 -255.70587,276.2723 95.96368,128.30368 191.71881,256.32858 287.85577,384.86404 -1.56604,0.21258 -2.60114,0.47589 -3.63629,0.47626 -67.6576,0.0232 -135.31519,0.0478 -202.97248,-0.0878 -1.9223,-0.004 -4.51873,-1.22467 -5.65997,-2.73822 -17.19232,-22.80219 -34.14044,-45.78809 -51.25183,-68.65161 -22.3678,-29.88678 -44.86749,-59.67481 -67.23804,-89.55957 -17.3114,-23.12629 -34.4931,-46.34955 -51.77023,-69.50153 -7.04849,-9.44513 -14.19678,-18.81586 -21.3089,-28.23261 -4.77991,4.65473 -9.65793,9.03492 -14.11292,13.80982 -15.86346,17.00275 -31.582,34.14075 -47.35742,51.22558 -28.28015,30.62763 -56.52905,61.28418 -84.85421,91.87018 -19.16831,20.69825 -38.47177,41.27118 -57.66263,61.94861 -11.31027,12.18652 -22.42646,24.55524 -33.87429,36.60993 -1.68182,1.77099 -4.70733,3.15063 -7.13438,3.18762 -17.66017,0.26953 -35.32631,0.14868 -52.99057,0.15112 -1.2533,1.8e-4 -2.50659,0 -4.91713,0 91.99361,-99.36285 183.20857,-197.8847 274.64104,-296.64142 -13.87183,-18.47534 -27.64975,-36.77917 -41.37677,-55.12097 -14.3335,-19.15219 -28.61148,-38.34595 -42.92584,-57.51242 -15.60059,-20.88873 -31.21756,-41.76532 -46.82309,-62.65036 -21.06696,-28.19409 -42.12979,-56.3912 -63.39472,-84.88238 m 292.48511,185.99728 c -1.71033,-2.23993 -3.44476,-4.46182 -5.12714,-6.72251 -17.14666,-23.04043 -34.23053,-46.12789 -51.43896,-69.12207 -22.4801,-30.03823 -45.09461,-59.97592 -67.58048,-90.00985 -18.91223,-25.26074 -37.75219,-50.57584 -56.53128,-75.93567 -1.75976,-2.37644 -3.58737,-3.28326 -6.57712,-3.27048 -29.15832,0.12445 -58.31741,0.0745 -87.47625,0.0923 -1.22437,7.3e-4 -2.44864,0.17916 -4.42145,0.33328 6.86267,9.2348 13.24258,17.88495 19.69083,26.48388 14.44687,19.26542 28.96701,38.47602 43.38403,57.76374 15.20328,20.33963 30.28052,40.77347 45.48855,61.10949 14.32828,19.15958 28.80948,38.20484 43.1236,57.37491 14.5983,19.55075 29.0047,39.24494 43.62348,58.78031 17.01055,22.73156 34.21945,45.31476 51.23349,68.04376 17.31353,23.12915 34.43969,46.39874 51.74774,69.53204 22.26507,29.75873 44.66424,59.41712 66.9411,89.167 19.60956,26.1878 39.09222,52.47076 58.78735,78.59368 1.1471,1.52143 3.69165,2.80719 5.59424,2.81867 29.49109,0.17889 58.98346,0.13013 88.47559,0.12524 1.09118,-1.8e-4 2.18237,-0.0905 4.14502,-0.17749 C 721.29706,717.5036 640.57642,609.57855 559.41211,501.08603 Z"
           id="path338" />
        <path
           fill="#010101"
           opacity="1"
           stroke="none"
           d="m 559.63391,501.36975 c 80.94251,108.2088 161.66315,216.13385 242.86054,324.69647 -1.96265,0.087 -3.05384,0.17731 -4.14502,0.17749 -29.49213,0.005 -58.9845,0.0537 -88.47559,-0.12524 -1.90259,-0.0115 -4.44714,-1.29724 -5.59424,-2.81867 -19.69513,-26.12292 -39.17779,-52.40588 -58.78735,-78.59368 -22.27686,-29.74988 -44.67603,-59.40827 -66.9411,-89.167 -17.30805,-23.1333 -34.43421,-46.40289 -51.74774,-69.53204 -17.01404,-22.729 -34.22294,-45.3122 -51.23349,-68.04376 -14.61878,-19.53537 -29.02518,-39.22956 -43.62348,-58.78031 -14.31412,-19.17007 -28.79532,-38.21533 -43.1236,-57.37491 -15.20803,-20.33602 -30.28527,-40.76986 -45.48855,-61.10949 -14.41702,-19.28772 -28.93716,-38.49832 -43.38403,-57.76374 -6.44825,-8.59893 -12.82816,-17.24908 -19.69083,-26.48388 1.97281,-0.15412 3.19708,-0.33255 4.42145,-0.33328 29.15884,-0.0178 58.31793,0.0322 87.47625,-0.0923 2.98975,-0.0128 4.81736,0.89404 6.57712,3.27048 18.77909,25.35983 37.61905,50.67493 56.53128,75.93567 22.48587,30.03393 45.10038,59.97162 67.58048,90.00985 17.20843,22.99418 34.2923,46.08164 51.43896,69.12207 1.68238,2.26069 3.41681,4.48258 5.34894,7.00623 z"
           id="path340" />
      </g>
    </g>
  </g>
  <g
     id="tiktok-icon"
     transform="translate(0,285)"
     fill="#000000"
     fill-rule="nonzero"
     style="stroke:none;stroke-width:1">
    <path
       d="m 16.791837,0.06938776 c 9.273875,0 16.791837,7.51796134 16.791837,16.79183624 0,9.273876 -7.517962,16.791837 -16.791837,16.791837 C 7.5179614,33.653061 0,26.1351 0,16.861224 0,7.5873491 7.5179614,0.06938776 16.791837,0.06938776 Z M 20.330612,6.3142857 H 17.346939 V 20.955102 c 0,1.804082 -1.595919,3.191837 -3.4,3.191837 -1.804082,0 -3.261225,-1.457143 -3.261225,-3.261225 0,-1.804081 1.457143,-3.261224 3.261225,-3.261224 0.138775,0 0.277551,0.06939 0.416326,0.06939 v 0 -3.122449 0 h -0.416326 l -0.229784,0.004 c -3.431339,0.120008 -6.1538897,2.917816 -6.1538897,6.379662 0,3.538776 2.8448977,6.383673 6.3836737,6.383673 3.538775,0 6.383673,-2.844897 6.383673,-6.383673 v 0 -8.604082 c 1.040817,1.595919 2.844898,2.567347 4.718368,2.567347 v 0 h 0.485714 l -0.06939,-3.608163 C 22.759184,11.102041 20.608163,9.0204082 20.330612,6.3142857 Z"
       id="Combined-Shape" />
  </g>
  <g
     id="Group"
     transform="translate(0,354)"
     fill="#191414"
     fill-rule="nonzero"
     style="stroke:none;stroke-width:1">
    <path
       d="M 16.947381,0 C 7.5872619,0 0,7.5872619 0,16.947381 0,26.3075 7.5872619,33.894762 16.947381,33.894762 26.3075,33.894762 33.894762,26.3075 33.894762,16.947381 33.896786,7.5872619 26.3075,0 16.947381,0 Z m 7.773452,24.445595 c -0.303571,0.499881 -0.955238,0.655714 -1.453095,0.352143 C 19.286905,22.365119 14.277976,21.816667 8.3785714,23.164524 7.8098809,23.294048 7.2432143,22.937857 7.1136905,22.37119 6.9841667,21.8025 7.3383333,21.235833 7.9090476,21.106309 14.365,19.630952 19.902143,20.266429 24.370714,22.994524 c 0.497857,0.301547 0.653691,0.953214 0.350119,1.451071 z m 2.074405,-4.616309 c -0.3825,0.621309 -1.196071,0.817619 -1.817381,0.435119 C 20.424286,17.465476 13.478571,16.653929 8.0891667,18.289167 7.3909524,18.499643 6.6522619,18.107024 6.4397619,17.408809 c -0.2104762,-0.698214 0.1841667,-1.43488 0.8803571,-1.64738 6.156429,-1.867977 13.808452,-0.963334 19.037976,2.2525 0.623334,0.3825 0.817619,1.196071 0.437143,1.815357 z m 0.178095,-4.804524 C 21.511071,11.780595 12.499048,11.483095 7.2836905,13.065714 6.4458333,13.320714 5.5614286,12.847143 5.3064286,12.009286 5.0534524,11.171429 5.525,10.287024 6.3628571,10.032024 12.349286,8.2146429 22.302381,8.5667857 28.590357,12.29869 c 0.752857,0.447262 0.999762,1.420715 0.554524,2.171548 -0.447262,0.752857 -1.420714,1.001786 -2.171548,0.554524 z"
       id="Shape" />
  </g>
  <circle
     id="Oval"
     fill="#000000"
     cx="17"
     cy="440"
     r="17"
     style="fill-rule:evenodd;stroke:none;stroke-width:1" />
  <path
     d="m 14.31953,217.21519 c 9.269992,-1.48038 17.984892,4.83435 19.465275,14.10434 1.480382,9.26999 -4.834344,17.98489 -14.104335,19.46527 -9.269992,1.48039 -17.9848924,-4.83434 -19.4652749,-14.10433 -1.4803825,-9.26999 4.8343435,-17.98489 14.1043349,-19.46528 z m 7.240739,13.41551 c -1.545206,0 -2.668993,0.84284 -3.090413,1.68568 v 0 h -0.07024 v -1.47497 h -3.16065 v 10.67598 h 3.301123 v -5.19752 c 0,-1.40473 0.280947,-2.73923 1.966627,-2.73923 1.685679,0 1.685679,1.61545 1.685679,2.80947 v 5.12728 h 3.301123 v -5.82965 c 0,-2.8797 -0.63213,-5.05704 -3.933253,-5.05704 z m -8.428398,0.21071 H 9.8307479 v 10.60574 h 3.3011231 z m -1.615443,-5.26774 c -1.05355,0 -1.8963901,0.84284 -1.8963901,1.89639 0,1.05355 0.8428401,1.89639 1.8963901,1.89639 1.053549,0 1.896389,-0.84284 1.896389,-1.89639 0,-1.05355 -0.84284,-1.89639 -1.896389,-1.89639 z"
     id="path40"
     fill="#000000"
     fill-rule="nonzero"
     style="stroke:none;stroke-width:1" />
  <g
     id="g44"
     transform="translate(8,434)"
     fill="#ffffff"
     fill-rule="nonzero"
     style="stroke:none;stroke-width:1">
    <path
       d="M 18.602727,2.0296774 C 18.384659,1.2308064 17.740171,0.60177419 16.922954,0.38790323 15.441818,0 9.5,0 9.5,0 9.5,0 3.5581818,0 2.0770455,0.38790323 1.2598295,0.60177419 0.61534091,1.2308064 0.39727273,2.0296774 0,3.4785484 0,6.5 0,6.5 0,6.5 0,9.5214516 0.39727273,10.970323 0.61534091,11.769194 1.2598295,12.398226 2.0770455,12.612097 3.5581818,13 9.5,13 9.5,13 c 0,0 5.941818,0 7.422954,-0.387903 0.817217,-0.213871 1.461705,-0.842903 1.679773,-1.641774 C 19,9.5214516 19,6.5 19,6.5 19,6.5 19,3.4785484 18.602727,2.0296774 Z M 7.5568182,9.243629 V 3.756371 L 12.522727,6.5 Z"
       id="path42" />
  </g>
  <path
     d="m 17,493 c 9.388841,0 17,7.61116 17,17 0,9.38884 -7.611159,17 -17,17 -1.579159,0 -3.108029,-0.21532 -4.558851,-0.6182 1.261953,-1.35066 2.228194,-4.49117 2.355467,-4.94872 0.138086,-0.49816 0.621217,-2.38187 0.917279,-3.53978 0.90402,0.86293 2.359584,1.44633 3.775883,1.44633 2.669993,0 5.071185,-1.19071 6.761314,-3.35253 1.639146,-2.09685 2.541908,-5.01941 2.541908,-8.22892 0,-2.50909 -1.08743,-4.98272 -2.982973,-6.78639 C 23.795716,499.05545 21.008099,498 17.96077,498 c -4.654926,0 -7.517931,1.89096 -9.0999793,3.47719 -1.9497832,1.95486 -3.0677907,4.55055 -3.0677907,7.1216 0,3.22814 1.3625163,5.70585 3.6441982,6.62762 0.1531752,0.0622 0.307322,0.0935 0.4584396,0.0935 0.4813592,0 0.8627532,-0.31215 0.9948962,-0.8128 0.07705,-0.28723 0.255482,-0.99587 0.333099,-1.30348 0.166092,-0.60748 0.03189,-0.89969 -0.330356,-1.32274 -0.659911,-0.77383 -0.9672327,-1.68887 -0.9672327,-2.87975 0,-3.53729 2.6578187,-7.29667 7.5838297,-7.29667 3.908597,0 6.336538,2.20153 6.336538,5.74533 0,2.2363 -0.486045,4.30733 -1.368917,5.83182 -0.613501,1.0593 -1.6923,2.322 -3.348422,2.322 -0.716151,0 -1.359487,-0.29153 -1.765401,-0.79983 -0.383452,-0.48048 -0.509879,-1.10115 -0.355618,-1.74805 0.174208,-0.7309 0.411801,-1.49329 0.641736,-2.2303 0.419345,-1.34613 0.815772,-2.61755 0.815772,-3.63194 0,-1.73503 -1.076342,-2.90087 -2.678108,-2.90087 -2.03563,0 -3.630424,2.04893 -3.630424,4.66462 0,1.2828 0.344015,2.2423 0.499762,2.6107 -0.256454,1.07674 -1.780547,7.47831 -2.069637,8.68545 -0.120155,0.50646 -0.6741104,3.52401 -0.35744,5.34622 C 4.2100618,522.98233 0,516.98282 0,510 0,500.61116 7.6111592,493 17,493 Z"
     id="path46"
     fill="#000000"
     style="fill-rule:evenodd;stroke:none;stroke-width:1" />
</svg>
